<?xml version="1.0" standalone="no"?>
<!DOCTYPE svg PUBLIC "-//W3C//DTD SVG 20010904//EN"
 "http://www.w3.org/TR/2001/REC-SVG-20010904/DTD/svg10.dtd">
<svg version="1.0" xmlns="http://www.w3.org/2000/svg"
 width="260.000000pt" height="260.000000pt" viewBox="0 0 260.000000 260.000000"
 preserveAspectRatio="xMidYMid meet">
<metadata>
Created by potrace 1.11, written by Peter Selinger 2001-2013
</metadata>
<g transform="translate(0.000000,260.000000) scale(0.100000,-0.100000)"
fill="#000000" stroke="none">
<path d="M0 1300 l0 -1300 1300 0 1300 0 0 1300 0 1300 -1300 0 -1300 0 0
-1300z m473 783 c-51 -2 -136 -2 -190 0 -54 1 -12 3 92 3 105 0 149 -2 98 -3z
m745 0 c-60 -2 -156 -2 -215 0 -60 1 -11 3 107 3 118 0 167 -2 108 -3z m924 0
c-150 -2 -393 -2 -540 0 -147 1 -24 2 273 2 297 0 417 -1 267 -2z m-1982 -16
c0 -2 -10 -12 -22 -23 l-23 -19 19 23 c18 21 26 27 26 19z m710 0 c0 -2 -10
-12 -22 -23 l-23 -19 19 23 c18 21 26 27 26 19z m1595 -17 c10 -11 16 -20 13
-20 -3 0 -13 9 -23 20 -10 11 -16 20 -13 20 3 0 13 -9 23 -20z m-1888 -32 c22
-21 23 -26 23 -206 l0 -184 126 173 c69 96 140 189 157 207 l31 32 197 0 c132
0 200 -4 205 -11 4 -8 9 -8 17 0 8 8 171 11 536 11 l525 0 23 -22 23 -21 0
-696 0 -695 -22 -23 -21 -23 -505 0 c-439 0 -508 2 -522 15 -15 14 -18 14 -30
0 -10 -12 -46 -15 -214 -15 -197 0 -203 1 -223 22 -12 13 -60 91 -108 173
-176 303 -165 287 -181 274 -11 -9 -14 -52 -14 -217 0 -272 17 -252 -219 -252
-166 0 -176 1 -198 22 l-23 21 0 696 0 695 22 23 c21 22 26 23 197 23 166 0
176 -1 198 -22z m-470 -1071 c-1 -193 -2 -35 -2 353 0 388 1 546 2 353 2 -194
2 -512 0 -706z m2390 0 c-1 -193 -2 -35 -2 353 0 388 1 546 2 353 2 -194 2
-512 0 -706z m-2352 -397 c10 -11 16 -20 13 -20 -3 0 -13 9 -23 20 -10 11 -16
20 -13 20 3 0 13 -9 23 -20z m2335 17 c0 -2 -10 -12 -22 -23 l-23 -19 19 23
c18 21 26 27 26 19z m-2007 -54 c-51 -2 -136 -2 -190 0 -54 1 -12 3 92 3 105
0 149 -2 98 -3z m765 0 c-60 -2 -156 -2 -215 0 -60 1 -11 3 107 3 118 0 167
-2 108 -3z m920 0 c-141 -2 -375 -2 -520 0 -145 1 -29 2 257 2 286 0 404 -1
263 -2z"/>
<path d="M202 1988 c-17 -17 -17 -1359 0 -1376 17 -17 329 -17 346 0 9 9 12
70 12 211 l0 200 38 41 39 42 144 -251 145 -250 193 -3 c209 -3 226 1 219 47
-2 14 -104 187 -226 384 l-223 358 216 271 c131 166 215 281 215 294 0 41 -17
45 -216 42 l-189 -3 -177 -244 -178 -243 0 234 c0 169 -3 237 -12 246 -8 8
-61 12 -173 12 -112 0 -165 -4 -173 -12z m320 -320 l3 -291 210 289 211 289
167 3 167 2 -192 -242 c-106 -134 -208 -261 -225 -284 l-32 -41 226 -364 c124
-200 228 -370 230 -376 4 -10 -32 -13 -160 -13 l-165 0 -154 268 c-85 147
-159 267 -165 267 -5 0 -35 -29 -66 -64 l-57 -64 0 -203 0 -204 -145 0 -145 0
0 660 0 660 145 0 145 0 2 -292z"/>
<path d="M374 1300 c0 -289 2 -457 3 -375 2 83 5 160 8 172 3 12 27 49 54 81
l49 59 -33 16 c-67 32 -69 43 -75 322 -4 166 -6 74 -6 -275z"/>
<path d="M676 1331 c-3 -5 3 -11 13 -14 14 -3 18 -1 14 9 -6 16 -19 18 -27 5z"/>
<path d="M1352 1988 c-8 -8 -12 -54 -12 -143 0 -89 4 -135 12 -143 9 -9 100
-12 350 -12 l338 0 0 -125 0 -125 -288 0 c-211 0 -291 -3 -300 -12 -17 -17
-17 -269 0 -286 9 -9 89 -12 300 -12 l288 0 0 -110 0 -110 -318 0 c-234 0
-321 -3 -330 -12 -8 -8 -12 -54 -12 -143 0 -89 4 -135 12 -143 17 -17 989 -17
1006 0 17 17 17 1359 0 1376 -17 17 -1029 17 -1046 0z m1008 -688 l0 -660
-470 0 -470 0 0 110 0 110 330 0 330 0 0 160 0 160 -300 0 -300 0 0 110 0 110
300 0 300 0 0 170 0 170 -350 0 -350 0 0 110 0 110 490 0 490 0 0 -660z"/>
<path d="M2210 1801 c6 -12 10 -105 10 -233 0 -195 -2 -216 -20 -246 -20 -32
-20 -32 0 -65 18 -29 20 -50 20 -235 0 -121 -4 -211 -10 -223 -8 -15 -7 -19 5
-19 13 0 15 59 15 520 0 461 -2 520 -15 520 -12 0 -13 -4 -5 -19z"/>
<path d="M1130 1634 c-91 -114 -171 -217 -178 -228 -13 -19 3 -48 185 -341
l198 -320 3 75 c2 60 7 79 24 97 21 23 22 23 330 23 l308 0 0 80 0 80 -278 0
c-350 0 -322 -16 -322 191 0 205 -27 189 323 189 l277 0 0 90 0 90 -328 0
c-328 0 -329 0 -350 23 -16 17 -22 37 -24 91 l-3 68 -165 -208z m692 -111
c-73 -2 -190 -2 -260 0 -70 1 -10 3 133 3 143 0 200 -2 127 -3z m-412 -16 c0
-2 -10 -12 -22 -23 l-23 -19 19 23 c18 21 26 27 26 19z m-53 -294 c-1 -43 -3
-8 -3 77 0 85 2 120 3 78 2 -43 2 -113 0 -155z"/>
</g>
</svg>
